<svg width="18" height="18" viewBox="0 0 18 18" fill="none" xmlns="http://www.w3.org/2000/svg">
<path fill-rule="evenodd" clip-rule="evenodd" d="M15.6667 5.66669V3.16669H14V4.00002H12.3333V3.16669H5.66666V4.00002H3.99999V3.16669H2.33332V5.66669H15.6667ZM15.6667 7.33335H2.33332V15.6667H15.6667V7.33335ZM14 1.50002H15.6667C16.5871 1.50002 17.3333 2.24621 17.3333 3.16669V15.6667C17.3333 16.5872 16.5871 17.3334 15.6667 17.3334H2.33332C1.41285 17.3334 0.666656 16.5872 0.666656 15.6667V3.16669C0.666656 2.24621 1.41285 1.50002 2.33332 1.50002H3.99999V0.666687H5.66666V1.50002H12.3333V0.666687H14V1.50002ZM6.49999 10.6667H4.83332V9.00002H6.49999V10.6667ZM9.83332 10.6667H8.16666V9.00002H9.83332V10.6667ZM13.1667 10.6667H11.5V9.00002H13.1667V10.6667ZM6.49999 14H4.83332V12.3334H6.49999V14ZM9.83332 14H8.16666V12.3334H9.83332V14Z" fill="#5762B2"/>
</svg>
