<svg width="15" height="15" viewBox="0 0 15 15" fill="none" xmlns="http://www.w3.org/2000/svg">
<path fill-rule="evenodd" clip-rule="evenodd" d="M7.5 14.375C3.70304 14.375 0.625 11.297 0.625 7.5C0.625 3.70304 3.70304 0.625 7.5 0.625C11.297 0.625 14.375 3.70304 14.375 7.5C14.375 11.297 11.297 14.375 7.5 14.375ZM7.5 13.125C10.6066 13.125 13.125 10.6066 13.125 7.5C13.125 4.3934 10.6066 1.875 7.5 1.875C4.3934 1.875 1.875 4.3934 1.875 7.5C1.875 10.6066 4.3934 13.125 7.5 13.125ZM7.5 8.38388L5.44194 10.4419L4.55806 9.55806L6.61612 7.5L4.55806 5.44194L5.44194 4.55806L7.5 6.61612L9.55806 4.55806L10.4419 5.44194L8.38388 7.5L10.4419 9.55806L9.55806 10.4419L7.5 8.38388Z" fill="#A6AEED"/>
</svg>
