<svg width="50" height="50" viewBox="0 0 50 50" fill="none" xmlns="http://www.w3.org/2000/svg">
<rect width="50" height="50" rx="5" fill="#EE8D8D"/>
<path fill-rule="evenodd" clip-rule="evenodd" d="M20 17V16C20 14.8954 20.8954 14 22 14H28C29.1046 14 30 14.8954 30 16V17H33C34.1046 17 35 17.8954 35 19V21C35 22.1046 34.1046 23 33 23H32.9199L32 34C32 35.1046 31.1046 36 30 36H20C18.8954 36 18 35.1046 18.0035 34.083L17.0799 23H17C15.8954 23 15 22.1046 15 21V19C15 17.8954 15.8954 17 17 17H20ZM20 19H17V21H33V19H30H20ZM19.0865 23L20 34H30L30.0035 33.917L30.9132 23H19.0865ZM28 17V16H22V17H28Z" fill="white"/>
</svg>
