<svg width="24" height="24" viewBox="0 0 24 24" fill="none" xmlns="http://www.w3.org/2000/svg">
<path fill-rule="evenodd" clip-rule="evenodd" d="M7 4V3C7 1.89543 7.89543 1 9 1H15C16.1046 1 17 1.89543 17 3V4H20C21.1046 4 22 4.89543 22 6V8C22 9.10457 21.1046 10 20 10H19.9199L19 21C19 22.1046 18.1046 23 17 23H7C5.89543 23 5 22.1046 5.00345 21.083L4.07987 10H4C2.89543 10 2 9.10457 2 8V6C2 4.89543 2.89543 4 4 4H7ZM7 6H4V8H20V6H17H7ZM6.08649 10L7 21H17L17.0035 20.917L17.9132 10H6.08649ZM15 4V3H9V4H15Z" fill="white"/>
</svg>
